<svg width="116" height="44" viewBox="0 0 116 44" fill="none" xmlns="http://www.w3.org/2000/svg">
<g clip-path="url(#clip0_30_820)">
<path d="M0 9.32715H20.3901V13.9912H0V9.32715Z" fill="#41E496"/>
<path d="M0 0H20.3901V4.6641H0V0Z" fill="#41E496"/>
<path d="M7.57346 3.20605H12.5253V43.4339H7.57346V3.20605Z" fill="#41E496"/>
<path d="M0 18.6562H20.3901V23.3204H0V18.6562Z" fill="#41E496"/>
<path d="M0 27.9844H20.3901V32.6485H0V27.9844Z" fill="#41E496"/>
</g>
<path d="M35.9329 22.4117C35.9329 15.5998 39.7793 11.2542 45.4755 11.2542C49.7036 11.2542 53.227 14.1611 53.227 16.7742C53.227 17.9487 52.3168 18.5066 51.2304 18.5066C50.0559 18.5066 49.3806 18.0368 49.2044 17.1853C48.5585 14.5134 47.0904 12.7811 44.7708 12.7811C41.7759 12.7811 39.5738 15.9521 39.5738 21.1491C39.5738 27.5794 42.5393 30.8972 46.7087 30.8972C49.0283 30.8972 50.8487 29.7521 52.17 27.9023C52.2874 27.7262 52.4342 27.6674 52.581 27.6674C53.0508 27.6674 53.4619 28.4015 53.1683 28.8419C51.524 31.8368 48.9108 33.5691 45.4461 33.5691C39.75 33.5691 35.9329 29.0474 35.9329 22.4117ZM55.5408 24.4964C55.5408 19.3287 58.6532 15.9521 62.7932 15.9521C66.434 15.9521 68.9298 18.7708 68.9298 21.5602C68.9298 22.2942 68.6068 22.5879 67.9902 22.7934L59.2991 25.9057C60.0625 28.9887 61.9417 31.1615 64.3493 31.1615C65.7881 31.1615 67.3149 30.5449 68.1957 29.6053C68.2838 29.5172 68.3719 29.4879 68.46 29.4879C68.8123 29.4879 69.2234 30.0164 68.9591 30.3687C67.6966 32.2185 65.6706 33.4517 63.0281 33.4517C58.8 33.4517 55.5408 29.6053 55.5408 24.4964ZM59.0642 24.6725L65.6706 22.0887C65.4357 19.1232 63.9676 17.3028 62.3234 17.3028C60.591 17.3028 58.8587 19.1232 58.9468 23.087C58.9468 23.6449 58.9761 24.1734 59.0642 24.6725ZM71.0532 24.4964C71.0532 19.3287 74.1656 15.9521 78.3056 15.9521C81.9464 15.9521 84.4422 18.7708 84.4422 21.5602C84.4422 22.2942 84.1192 22.5879 83.5026 22.7934L74.8115 25.9057C75.5749 28.9887 77.4541 31.1615 79.8617 31.1615C81.3004 31.1615 82.8273 30.5449 83.7081 29.6053C83.7962 29.5172 83.8843 29.4879 83.9724 29.4879C84.3247 29.4879 84.7358 30.0164 84.4715 30.3687C83.209 32.2185 81.183 33.4517 78.5404 33.4517C74.3124 33.4517 71.0532 29.6053 71.0532 24.4964ZM74.5766 24.6725L81.183 22.0887C80.9481 19.1232 79.48 17.3028 77.8358 17.3028C76.1034 17.3028 74.3711 19.1232 74.4592 23.087C74.4592 23.6449 74.4885 24.1734 74.5766 24.6725ZM86.5656 24.7313C86.5656 19.3581 89.2962 15.9521 93.6711 15.9521C94.9043 15.9521 96.0788 16.4513 96.9596 17.2734H97.0477V13.1334C97.0477 12.1057 95.609 11.9589 95.609 11.2836C95.609 10.9606 95.9026 10.7257 96.1082 10.6376L98.1928 10.0798C98.7507 9.9036 99.1618 9.78616 99.5141 9.78616C100.072 9.78616 100.248 10.1972 100.248 10.6964V29.0181C100.248 31.2496 101.834 31.1908 101.834 31.8074C101.834 32.1304 101.511 32.424 101.276 32.5121L99.1618 33.1581C98.692 33.3342 98.2516 33.5691 97.8992 33.5691C97.3413 33.5691 97.0477 33.0994 97.0477 32.5415V31.5432H96.9596C95.9613 32.6883 94.4933 33.4223 92.9958 33.4223C89.1201 33.4223 86.5656 29.9576 86.5656 24.7313ZM90.0009 23.9972C90.1184 28.8125 91.8507 31.7193 94.1409 31.7193C95.3154 31.7193 96.5192 30.4274 97.0477 28.1666V21.1491C96.4018 18.8883 95.1099 17.2734 93.6711 17.2734C91.5864 17.2734 89.9128 19.5049 90.0009 23.9972ZM105.322 30.3687V19.6223C105.322 18.8883 103.913 18.7121 103.913 18.1836C103.913 17.8606 104.207 17.6257 104.412 17.5083L106.526 16.4219C107.025 16.1576 107.466 15.9521 107.789 15.9521C108.347 15.9521 108.552 16.3925 108.552 16.8623V19.5636H108.64C109.551 17.1853 111.224 15.8934 112.78 15.8934C113.72 15.8934 114.366 16.4513 114.366 17.6257C114.366 18.6828 113.544 19.5636 112.399 19.5636C110.784 19.5636 109.345 20.0628 108.552 21.707V30.3687C108.552 31.3376 108.934 31.8074 110.314 32.1598C110.578 32.2772 110.696 32.4828 110.696 32.7176C110.696 32.8938 110.608 33.2168 110.343 33.2168H104.001C103.766 33.2168 103.649 32.8938 103.649 32.7176C103.649 32.4828 103.766 32.2772 104.031 32.1598C104.999 31.8074 105.322 31.3376 105.322 30.3687Z" fill="#41E496"/>
<defs>
<clipPath id="clip0_30_820">
<rect width="20.3901" height="43.4345" fill="white"/>
</clipPath>
</defs>
</svg>
